<mxfile host="app.diagrams.net" agent="Mozilla/5.0 (Windows NT 10.0; Win64; x64) AppleWebKit/537.36 (KHTML, like Gecko) Chrome/129.0.0.0 Safari/537.36" version="27.1.6">
  <diagram name="Pagina-1" id="umbcKrWkObhpTiIChdeF">
    <mxGraphModel dx="3318" dy="2549" grid="1" gridSize="10" guides="1" tooltips="1" connect="1" arrows="1" fold="1" page="1" pageScale="1" pageWidth="827" pageHeight="1169" math="0" shadow="0">
      <root>
        <mxCell id="0" />
        <mxCell id="1" parent="0" />
        <mxCell id="Gq6X4qV2zcUeMhSdZaim-1" value="&amp;lt;&amp;lt;server&amp;gt;&amp;gt;&lt;div&gt;web server&lt;/div&gt;&lt;div&gt;{apache}&lt;/div&gt;" style="verticalAlign=top;align=left;spacingTop=8;spacingLeft=2;spacingRight=12;shape=cube;size=10;direction=south;fontStyle=4;html=1;whiteSpace=wrap;" parent="1" vertex="1">
          <mxGeometry x="-270" y="-870" width="350" height="490" as="geometry" />
        </mxCell>
        <mxCell id="Gq6X4qV2zcUeMhSdZaim-2" value="&amp;lt;&amp;lt;server&amp;gt;&amp;gt;&lt;div&gt;{linux}&lt;/div&gt;" style="verticalAlign=top;align=left;spacingTop=8;spacingLeft=2;spacingRight=12;shape=cube;size=10;direction=south;fontStyle=4;html=1;whiteSpace=wrap;" parent="1" vertex="1">
          <mxGeometry x="420" y="-870" width="220" height="220" as="geometry" />
        </mxCell>
        <mxCell id="Gq6X4qV2zcUeMhSdZaim-3" value="&amp;lt;&amp;lt;database&amp;gt;&amp;gt;&lt;div&gt;{MariaDB}&lt;/div&gt;" style="verticalAlign=top;align=left;spacingTop=8;spacingLeft=2;spacingRight=12;shape=cube;size=10;direction=south;fontStyle=4;html=1;whiteSpace=wrap;" parent="1" vertex="1">
          <mxGeometry x="440" y="-810" width="180" height="140" as="geometry" />
        </mxCell>
        <mxCell id="Gq6X4qV2zcUeMhSdZaim-13" value="&amp;lt;&amp;lt;PC&amp;gt;&amp;gt;&lt;div&gt;&lt;span style=&quot;background-color: transparent; color: light-dark(rgb(0, 0, 0), rgb(255, 255, 255));&quot;&gt;client&lt;/span&gt;&lt;/div&gt;&lt;div&gt;&lt;span style=&quot;background-color: transparent; color: light-dark(rgb(0, 0, 0), rgb(255, 255, 255));&quot;&gt;{browser}&lt;/span&gt;&lt;br&gt;&lt;/div&gt;" style="verticalAlign=top;align=left;spacingTop=8;spacingLeft=2;spacingRight=12;shape=cube;size=10;direction=south;fontStyle=4;html=1;whiteSpace=wrap;" parent="1" vertex="1">
          <mxGeometry x="-800" y="-790" width="180" height="120" as="geometry" />
        </mxCell>
        <mxCell id="Gq6X4qV2zcUeMhSdZaim-26" value="&amp;lt;&amp;lt;server&amp;gt;&amp;gt;&lt;div&gt;{linux}&lt;/div&gt;" style="verticalAlign=top;align=left;spacingTop=8;spacingLeft=2;spacingRight=12;shape=cube;size=10;direction=south;fontStyle=4;html=1;whiteSpace=wrap;" parent="1" vertex="1">
          <mxGeometry x="410" y="-536" width="220" height="220" as="geometry" />
        </mxCell>
        <mxCell id="Gq6X4qV2zcUeMhSdZaim-27" value="&amp;lt;&amp;lt;file system&amp;gt;&amp;gt;" style="verticalAlign=top;align=left;spacingTop=8;spacingLeft=2;spacingRight=12;shape=cube;size=10;direction=south;fontStyle=4;html=1;whiteSpace=wrap;" parent="1" vertex="1">
          <mxGeometry x="430" y="-476" width="180" height="140" as="geometry" />
        </mxCell>
        <mxCell id="Gq6X4qV2zcUeMhSdZaim-53" value="" style="html=1;labelBackgroundColor=#ffffff;startArrow=none;startFill=0;startSize=6;endArrow=classic;endFill=1;endSize=6;jettySize=auto;orthogonalLoop=1;strokeWidth=1;dashed=1;fontSize=14;rounded=0;" parent="1" edge="1">
          <mxGeometry width="60" height="60" relative="1" as="geometry">
            <mxPoint x="-112.5" y="-725" as="sourcePoint" />
            <mxPoint x="-112.5" y="-655" as="targetPoint" />
          </mxGeometry>
        </mxCell>
        <mxCell id="Gq6X4qV2zcUeMhSdZaim-55" value="" style="html=1;labelBackgroundColor=#ffffff;startArrow=none;startFill=0;startSize=6;endArrow=classic;endFill=1;endSize=6;jettySize=auto;orthogonalLoop=1;strokeWidth=1;dashed=1;fontSize=14;rounded=0;exitX=0.5;exitY=1;exitDx=0;exitDy=0;entryX=0.5;entryY=0;entryDx=0;entryDy=0;" parent="1" source="dAPVQV0xI5T5EJiJ2oGQ-1" target="dAPVQV0xI5T5EJiJ2oGQ-2" edge="1">
          <mxGeometry width="60" height="60" relative="1" as="geometry">
            <mxPoint x="-129.5699999999997" y="-590" as="sourcePoint" />
            <mxPoint x="-130" y="-550" as="targetPoint" />
          </mxGeometry>
        </mxCell>
        <mxCell id="Gq6X4qV2zcUeMhSdZaim-56" value="" style="html=1;labelBackgroundColor=#ffffff;startArrow=none;startFill=0;startSize=6;endArrow=classic;endFill=1;endSize=6;jettySize=auto;orthogonalLoop=1;strokeWidth=1;dashed=1;fontSize=14;rounded=0;exitX=0.82;exitY=0.001;exitDx=0;exitDy=0;exitPerimeter=0;entryX=0;entryY=0;entryDx=115;entryDy=220;entryPerimeter=0;" parent="1" source="Gq6X4qV2zcUeMhSdZaim-1" target="Gq6X4qV2zcUeMhSdZaim-2" edge="1">
          <mxGeometry width="60" height="60" relative="1" as="geometry">
            <mxPoint x="630" y="730" as="sourcePoint" />
            <mxPoint x="690" y="670" as="targetPoint" />
          </mxGeometry>
        </mxCell>
        <mxCell id="Gq6X4qV2zcUeMhSdZaim-57" value="" style="html=1;labelBackgroundColor=#ffffff;startArrow=none;startFill=0;startSize=6;endArrow=classic;endFill=1;endSize=6;jettySize=auto;orthogonalLoop=1;strokeWidth=1;dashed=1;fontSize=14;rounded=0;exitX=0.882;exitY=0.004;exitDx=0;exitDy=0;exitPerimeter=0;entryX=0;entryY=0;entryDx=115;entryDy=220;entryPerimeter=0;" parent="1" source="Gq6X4qV2zcUeMhSdZaim-1" target="Gq6X4qV2zcUeMhSdZaim-26" edge="1">
          <mxGeometry width="60" height="60" relative="1" as="geometry">
            <mxPoint x="680" y="920" as="sourcePoint" />
            <mxPoint x="740" y="860" as="targetPoint" />
          </mxGeometry>
        </mxCell>
        <mxCell id="Gq6X4qV2zcUeMhSdZaim-58" value="SQL" style="text;html=1;align=center;verticalAlign=middle;whiteSpace=wrap;rounded=0;" parent="1" vertex="1">
          <mxGeometry x="300" y="-790" width="60" height="30" as="geometry" />
        </mxCell>
        <mxCell id="Gq6X4qV2zcUeMhSdZaim-59" value="HTTP/File" style="text;html=1;align=center;verticalAlign=middle;whiteSpace=wrap;rounded=0;" parent="1" vertex="1">
          <mxGeometry x="310" y="-572" width="60" height="30" as="geometry" />
        </mxCell>
        <mxCell id="Gq6X4qV2zcUeMhSdZaim-60" value="crea istanza di" style="text;html=1;align=center;verticalAlign=middle;whiteSpace=wrap;rounded=0;" parent="1" vertex="1">
          <mxGeometry x="-82.5" y="-580" width="60" height="30" as="geometry" />
        </mxCell>
        <mxCell id="Gq6X4qV2zcUeMhSdZaim-75" value="http" style="text;html=1;align=center;verticalAlign=middle;whiteSpace=wrap;rounded=0;" parent="1" vertex="1">
          <mxGeometry x="-112.5" y="-705" width="60" height="30" as="geometry" />
        </mxCell>
        <mxCell id="Gq6X4qV2zcUeMhSdZaim-49" value="&amp;lt;&amp;lt;artifact&amp;gt;&amp;gt;&lt;br&gt;&lt;br&gt;&lt;b&gt;View {html/php}&lt;/b&gt;" style="html=1;align=center;verticalAlign=middle;dashed=0;whiteSpace=wrap;" parent="1" vertex="1">
          <mxGeometry x="-200" y="-785" width="180" height="60" as="geometry" />
        </mxCell>
        <mxCell id="Gq6X4qV2zcUeMhSdZaim-83" value="" style="html=1;labelBackgroundColor=#ffffff;startArrow=none;startFill=0;startSize=6;endArrow=classic;endFill=1;endSize=6;jettySize=auto;orthogonalLoop=1;strokeWidth=1;dashed=1;fontSize=14;rounded=0;exitX=0;exitY=0;exitDx=55;exitDy=0;exitPerimeter=0;entryX=0.071;entryY=0.996;entryDx=0;entryDy=0;entryPerimeter=0;" parent="1" source="Gq6X4qV2zcUeMhSdZaim-13" target="Gq6X4qV2zcUeMhSdZaim-1" edge="1">
          <mxGeometry width="60" height="60" relative="1" as="geometry">
            <mxPoint x="-560" y="-700" as="sourcePoint" />
            <mxPoint x="-500" y="-760" as="targetPoint" />
          </mxGeometry>
        </mxCell>
        <mxCell id="Gq6X4qV2zcUeMhSdZaim-84" value="http" style="text;html=1;align=center;verticalAlign=middle;whiteSpace=wrap;rounded=0;" parent="1" vertex="1">
          <mxGeometry x="-480" y="-770" width="60" height="30" as="geometry" />
        </mxCell>
        <mxCell id="dAPVQV0xI5T5EJiJ2oGQ-1" value="&amp;lt;&amp;lt;artifact&amp;gt;&amp;gt;&lt;br&gt;&lt;br&gt;&lt;b&gt;controllers {php}&lt;/b&gt;" style="html=1;align=center;verticalAlign=middle;dashed=0;whiteSpace=wrap;" vertex="1" parent="1">
          <mxGeometry x="-200" y="-650" width="180" height="60" as="geometry" />
        </mxCell>
        <mxCell id="dAPVQV0xI5T5EJiJ2oGQ-2" value="&amp;lt;&amp;lt;artifact&amp;gt;&amp;gt;&lt;br&gt;&lt;br&gt;&lt;b&gt;models {php}&lt;/b&gt;" style="html=1;align=center;verticalAlign=middle;dashed=0;whiteSpace=wrap;" vertex="1" parent="1">
          <mxGeometry x="-202.5" y="-530" width="180" height="60" as="geometry" />
        </mxCell>
      </root>
    </mxGraphModel>
  </diagram>
</mxfile>
